<svg width="48" height="48" viewBox="0 0 48 48" fill="none" xmlns="http://www.w3.org/2000/svg">
<rect width="48" height="48" rx="8" fill="#2A2C34"/>
<path d="M28.218 30.239C28.0426 30.1705 16.5094 24.0967 16.334 24.0054C15.5885 23.6857 14.9526 23.1149 14.5141 22.3613C13.4616 20.4661 14.0756 18.0458 15.8954 16.9497C17.1452 16.1962 18.6143 16.2419 19.7764 16.9726C19.9299 17.0411 30.9807 22.8409 31.1561 22.955C31.3315 23.0235 31.485 23.1149 31.6604 23.2062C32.4059 23.5259 33.0417 24.0967 33.4803 24.8502C34.5327 26.7454 33.9407 29.1658 32.1208 30.2618C30.871 31.0382 29.3801 30.9697 28.218 30.239Z" fill="#7693FF" fill-opacity="0.4"/>
<path d="M26.1789 16.552C26.2109 17.054 26.0586 17.5651 25.7105 17.9685C24.9841 18.8103 23.6843 18.8668 22.8109 18.1131C22.2684 17.645 22.0097 16.9781 22.0652 16.3376C22.0554 16.2374 22.109 8.14479 22.116 8.04374C22.0839 7.54182 22.2362 7.0307 22.5843 6.62731C23.3107 5.78544 24.6105 5.72901 25.4839 6.48269C26.0264 6.95077 26.2851 7.61762 26.2296 8.25818C26.241 8.3751 26.1858 16.451 26.1789 16.552Z" fill="#D6FF62"/>
<path d="M26.1789 40.552C26.2109 41.054 26.0586 41.5651 25.7105 41.9685C24.9841 42.8103 23.6843 42.8668 22.8109 42.1131C22.2684 41.645 22.0097 40.9781 22.0652 40.3376C22.0554 40.2374 22.109 32.1448 22.116 32.0437C22.0839 31.5418 22.2362 31.0307 22.5843 30.6273C23.3107 29.7854 24.6105 29.729 25.4839 30.4827C26.0264 30.9508 26.2851 31.6176 26.2296 32.2582C26.241 32.3751 26.1858 40.451 26.1789 40.552Z" fill="#D6FF62"/>
<path d="M19.0442 39.2808C18.258 39.82 17.278 40.0679 16.2835 39.8925C14.2079 39.5266 12.8549 37.4649 13.2346 35.3114C13.4705 33.974 14.3053 32.9058 15.4021 32.3746C15.5558 32.2615 28.7846 24.497 28.9559 24.4103C29.742 23.8711 30.722 23.6232 31.7166 23.7986C33.7921 24.1645 35.1451 26.2262 34.7654 28.3797C34.5296 29.7171 33.6948 30.7853 32.5979 31.3165C32.4186 31.4484 19.2155 39.1941 19.0442 39.2808Z" fill="#7693FF"/>
<path d="M19.0444 22.8088C18.2581 23.3488 17.278 23.5972 16.2835 23.4218C14.2295 23.0597 12.8513 21.0147 13.2355 18.8358C13.4716 17.4967 14.3067 16.4271 15.4037 15.8951C15.5574 15.7817 28.7843 8.02772 28.9557 7.94092C29.7419 7.4009 30.722 7.15248 31.7166 7.32785C33.7921 7.69382 35.1447 9.75769 34.7646 11.9138C34.5284 13.2529 33.6933 14.3226 32.5964 14.8546C32.421 14.9641 19.2117 22.7447 19.0444 22.8088Z" fill="#7693FF"/>
</svg>
