<svg width="202" height="39" viewBox="0 0 202 39" fill="none" xmlns="http://www.w3.org/2000/svg">
<path d="M180.378 16.52C180.378 14.6533 180.644 13.0133 181.178 11.6C181.711 10.16 182.458 8.96 183.418 8C184.378 7.01333 185.538 6.26667 186.898 5.76C188.258 5.25333 189.764 5 191.418 5C192.938 5 194.338 5.26667 195.618 5.8C196.898 6.33333 198.004 7.06667 198.938 8C199.898 8.93333 200.644 10.0533 201.178 11.36C201.711 12.6667 201.978 14.08 201.978 15.6C201.978 17.1467 201.711 18.5733 201.178 19.88C200.671 21.16 199.951 22.2667 199.018 23.2C198.111 24.1333 197.031 24.8667 195.778 25.4C194.551 25.9067 193.204 26.16 191.738 26.16C190.218 26.16 188.871 25.8667 187.698 25.28C186.524 24.6933 185.604 23.9733 184.938 23.12V33.64H180.378V16.52ZM191.098 22.12C192.004 22.12 192.831 21.96 193.578 21.64C194.351 21.2933 195.004 20.8267 195.538 20.24C196.098 19.6533 196.524 18.96 196.818 18.16C197.111 17.36 197.258 16.4933 197.258 15.56C197.258 14.6533 197.111 13.8133 196.818 13.04C196.524 12.24 196.098 11.56 195.538 11C195.004 10.4133 194.351 9.96 193.578 9.64C192.831 9.29333 192.004 9.12 191.098 9.12C190.191 9.12 189.351 9.28 188.578 9.6C187.831 9.92 187.178 10.36 186.618 10.92C186.084 11.48 185.658 12.16 185.338 12.96C185.044 13.7333 184.898 14.6 184.898 15.56C184.898 16.4933 185.044 17.36 185.338 18.16C185.658 18.96 186.084 19.6533 186.618 20.24C187.151 20.8267 187.791 21.2933 188.538 21.64C189.311 21.96 190.164 22.12 191.098 22.12Z" fill="#7693FF"/>
<path d="M155.378 16.52C155.378 14.6533 155.645 13.0133 156.178 11.6C156.711 10.16 157.458 8.96 158.418 8C159.378 7.01333 160.538 6.26667 161.898 5.76C163.258 5.25333 164.765 5 166.418 5C167.938 5 169.338 5.26667 170.618 5.8C171.898 6.33333 173.005 7.06667 173.938 8C174.898 8.93333 175.645 10.0533 176.178 11.36C176.711 12.6667 176.978 14.08 176.978 15.6C176.978 17.1467 176.711 18.5733 176.178 19.88C175.671 21.16 174.951 22.2667 174.018 23.2C173.111 24.1333 172.031 24.8667 170.778 25.4C169.551 25.9067 168.205 26.16 166.738 26.16C165.218 26.16 163.871 25.8667 162.698 25.28C161.525 24.6933 160.605 23.9733 159.938 23.12V33.64H155.378V16.52ZM166.098 22.12C167.005 22.12 167.831 21.96 168.578 21.64C169.351 21.2933 170.005 20.8267 170.538 20.24C171.098 19.6533 171.525 18.96 171.818 18.16C172.111 17.36 172.258 16.4933 172.258 15.56C172.258 14.6533 172.111 13.8133 171.818 13.04C171.525 12.24 171.098 11.56 170.538 11C170.005 10.4133 169.351 9.96 168.578 9.64C167.831 9.29333 167.005 9.12 166.098 9.12C165.191 9.12 164.351 9.28 163.578 9.6C162.831 9.92 162.178 10.36 161.618 10.92C161.085 11.48 160.658 12.16 160.338 12.96C160.045 13.7333 159.898 14.6 159.898 15.56C159.898 16.4933 160.045 17.36 160.338 18.16C160.658 18.96 161.085 19.6533 161.618 20.24C162.151 20.8267 162.791 21.2933 163.538 21.64C164.311 21.96 165.165 22.12 166.098 22.12Z" fill="#7693FF"/>
<path d="M151.165 25.56C150.898 25.6133 150.471 25.6667 149.885 25.72C149.325 25.8 148.658 25.8667 147.885 25.92C147.111 26 146.245 26.0667 145.285 26.12C144.325 26.1733 143.325 26.2 142.285 26.2C140.205 26.2 138.498 26.0133 137.165 25.64C135.858 25.2933 134.818 24.8267 134.045 24.24C133.298 23.6267 132.778 22.9333 132.485 22.16C132.218 21.36 132.085 20.5467 132.085 19.72C132.085 18.6267 132.245 17.6667 132.565 16.84C132.911 16.0133 133.458 15.32 134.205 14.76C134.978 14.2 135.978 13.7867 137.205 13.52C138.431 13.2267 139.925 13.08 141.685 13.08C142.698 13.08 143.658 13.12 144.565 13.2C145.471 13.2533 146.151 13.3067 146.605 13.36C146.605 12.4267 146.445 11.6533 146.125 11.04C145.831 10.4267 145.418 9.94667 144.885 9.6C144.351 9.25333 143.711 9.01333 142.965 8.88C142.218 8.74667 141.391 8.68 140.485 8.68C138.965 8.68 137.738 8.85333 136.805 9.2C135.898 9.54667 135.298 9.84 135.005 10.08C134.845 9.94667 134.618 9.69333 134.325 9.32C134.058 8.94667 133.925 8.49333 133.925 7.96C133.925 7.58667 134.018 7.22667 134.205 6.88C134.418 6.50667 134.778 6.18667 135.285 5.92C135.791 5.62667 136.471 5.4 137.325 5.24C138.178 5.08 139.258 5 140.565 5C142.138 5 143.565 5.16 144.845 5.48C146.151 5.77333 147.271 6.25333 148.205 6.92C149.138 7.58667 149.858 8.46667 150.365 9.56C150.898 10.6533 151.165 11.9733 151.165 13.52V25.56ZM146.645 16.68C146.378 16.6267 145.871 16.5467 145.125 16.44C144.405 16.3333 143.311 16.28 141.845 16.28C140.031 16.28 138.711 16.56 137.885 17.12C137.058 17.6533 136.645 18.5067 136.645 19.68C136.645 20.16 136.725 20.6 136.885 21C137.071 21.4 137.378 21.7467 137.805 22.04C138.231 22.3067 138.805 22.52 139.525 22.68C140.271 22.8133 141.191 22.88 142.285 22.88C143.511 22.88 144.485 22.84 145.205 22.76C145.925 22.6533 146.405 22.5733 146.645 22.52V16.68Z" fill="#7693FF"/>
<path d="M107.605 16.52C107.605 14.6533 107.871 13.0133 108.405 11.6C108.938 10.16 109.685 8.96 110.645 8C111.605 7.01333 112.765 6.26667 114.125 5.76C115.485 5.25333 116.991 5 118.645 5C120.165 5 121.565 5.26667 122.845 5.8C124.125 6.33333 125.231 7.06667 126.165 8C127.125 8.93333 127.871 10.0533 128.405 11.36C128.938 12.6667 129.205 14.08 129.205 15.6C129.205 17.1467 128.938 18.5733 128.405 19.88C127.898 21.16 127.178 22.2667 126.245 23.2C125.338 24.1333 124.258 24.8667 123.005 25.4C121.778 25.9067 120.431 26.16 118.965 26.16C117.445 26.16 116.098 25.8667 114.925 25.28C113.751 24.6933 112.831 23.9733 112.165 23.12V33.64H107.605V16.52ZM118.325 22.12C119.231 22.12 120.058 21.96 120.805 21.64C121.578 21.2933 122.231 20.8267 122.765 20.24C123.325 19.6533 123.751 18.96 124.045 18.16C124.338 17.36 124.485 16.4933 124.485 15.56C124.485 14.6533 124.338 13.8133 124.045 13.04C123.751 12.24 123.325 11.56 122.765 11C122.231 10.4133 121.578 9.96 120.805 9.64C120.058 9.29333 119.231 9.12 118.325 9.12C117.418 9.12 116.578 9.28 115.805 9.6C115.058 9.92 114.405 10.36 113.845 10.92C113.311 11.48 112.885 12.16 112.565 12.96C112.271 13.7333 112.125 14.6 112.125 15.56C112.125 16.4933 112.271 17.36 112.565 18.16C112.885 18.96 113.311 19.6533 113.845 20.24C114.378 20.8267 115.018 21.2933 115.765 21.64C116.538 21.96 117.391 22.12 118.325 22.12Z" fill="#F5F5F5"/>
<path d="M33.0223 16.52C33.0223 14.6533 33.2889 13.0133 33.8223 11.6C34.3556 10.16 35.1023 8.96 36.0623 8C37.0223 7.01333 38.1823 6.26667 39.5423 5.76C40.9023 5.25333 42.409 5 44.0623 5C45.5823 5 46.9823 5.26667 48.2623 5.8C49.5423 6.33333 50.6489 7.06667 51.5823 8C52.5423 8.93333 53.2889 10.0533 53.8223 11.36C54.3556 12.6667 54.6223 14.08 54.6223 15.6C54.6223 17.1467 54.3556 18.5733 53.8223 19.88C53.3156 21.16 52.5956 22.2667 51.6623 23.2C50.7556 24.1333 49.6756 24.8667 48.4223 25.4C47.1956 25.9067 45.8489 26.16 44.3823 26.16C42.8623 26.16 41.5156 25.8667 40.3423 25.28C39.169 24.6933 38.2489 23.9733 37.5823 23.12V33.64H33.0223V16.52ZM43.7423 22.12C44.6489 22.12 45.4756 21.96 46.2223 21.64C46.9956 21.2933 47.6489 20.8267 48.1823 20.24C48.7423 19.6533 49.1689 18.96 49.4623 18.16C49.7556 17.36 49.9023 16.4933 49.9023 15.56C49.9023 14.6533 49.7556 13.8133 49.4623 13.04C49.1689 12.24 48.7423 11.56 48.1823 11C47.6489 10.4133 46.9956 9.96 46.2223 9.64C45.4756 9.29333 44.6489 9.12 43.7423 9.12C42.8356 9.12 41.9956 9.28 41.2223 9.6C40.4756 9.92 39.8223 10.36 39.2623 10.92C38.729 11.48 38.3023 12.16 37.9823 12.96C37.689 13.7333 37.5423 14.6 37.5423 15.56C37.5423 16.4933 37.689 17.36 37.9823 18.16C38.3023 18.96 38.729 19.6533 39.2623 20.24C39.7956 20.8267 40.4356 21.2933 41.1823 21.64C41.9556 21.96 42.8089 22.12 43.7423 22.12Z" fill="#F5F5F5"/>
<path d="M83.8658 7.68C83.8658 6.93333 84.0791 6.4 84.5058 6.08C84.9324 5.73333 85.5324 5.56 86.3058 5.56C86.7858 5.56 87.2258 5.62666 87.6258 5.76C88.0258 5.86666 88.2925 5.94666 88.4258 6V16.52C88.4258 18.3333 88.8525 19.72 89.7058 20.68C90.5591 21.6133 91.8658 22.08 93.6258 22.08C95.3858 22.08 96.6925 21.6133 97.5458 20.68C98.3991 19.72 98.8258 18.3333 98.8258 16.52V7.68C98.8258 6.93333 99.0391 6.4 99.4658 6.08C99.8924 5.73333 100.479 5.56 101.226 5.56C101.732 5.56 102.186 5.62666 102.586 5.76C102.986 5.86666 103.252 5.94666 103.386 6V17.52C103.386 18.88 103.146 20.1067 102.666 21.2C102.212 22.2667 101.546 23.1733 100.666 23.92C99.8125 24.6667 98.7858 25.24 97.5858 25.64C96.3858 26.0133 95.0658 26.2 93.6258 26.2C92.1858 26.2 90.8658 26.0133 89.6658 25.64C88.4658 25.24 87.4391 24.6667 86.5858 23.92C85.7325 23.1733 85.0658 22.2667 84.5858 21.2C84.1058 20.1067 83.8658 18.88 83.8658 17.52V7.68Z" fill="#F5F5F5"/>
<path d="M69.0267 5C70.5733 5 72.0133 5.26667 73.3467 5.8C74.7067 6.33333 75.88 7.08 76.8667 8.04C77.8533 8.97333 78.6267 10.0933 79.1867 11.4C79.7467 12.68 80.0267 14.08 80.0267 15.6C80.0267 17.0933 79.7467 18.4933 79.1867 19.8C78.6267 21.08 77.8533 22.2 76.8667 23.16C75.88 24.0933 74.7067 24.84 73.3467 25.4C72.0133 25.9333 70.5733 26.2 69.0267 26.2C67.48 26.2 66.0267 25.9333 64.6667 25.4C63.3333 24.84 62.1733 24.0933 61.1867 23.16C60.2 22.2 59.4267 21.08 58.8667 19.8C58.3067 18.4933 58.0267 17.0933 58.0267 15.6C58.0267 14.08 58.3067 12.68 58.8667 11.4C59.4267 10.0933 60.2 8.97333 61.1867 8.04C62.1733 7.08 63.3333 6.33333 64.6667 5.8C66.0267 5.26667 67.48 5 69.0267 5ZM69.0267 22.16C69.9333 22.16 70.7733 22 71.5467 21.68C72.32 21.3333 72.9733 20.8667 73.5067 20.28C74.0667 19.6667 74.4933 18.9733 74.7867 18.2C75.1067 17.4 75.2667 16.5333 75.2667 15.6C75.2667 14.6667 75.1067 13.8 74.7867 13C74.4933 12.1733 74.0667 11.4667 73.5067 10.88C72.9733 10.2933 72.32 9.84 71.5467 9.52C70.7733 9.17333 69.9333 9 69.0267 9C68.0933 9 67.24 9.17333 66.4667 9.52C65.72 9.84 65.0667 10.2933 64.5067 10.88C63.9733 11.4667 63.5467 12.1733 63.2267 13C62.9333 13.8 62.7867 14.6667 62.7867 15.6C62.7867 16.5333 62.9333 17.4 63.2267 18.2C63.5467 18.9733 63.9733 19.6667 64.5067 20.28C65.0667 20.8667 65.72 21.3333 66.4667 21.68C67.24 22 68.0933 22.16 69.0267 22.16Z" fill="#F5F5F5"/>
<path d="M15.6972 25.7245C15.5217 25.656 3.98855 19.5822 3.81314 19.4909C3.06765 19.1712 2.43179 18.6004 1.99326 17.8469C0.940803 15.9517 1.55474 13.5313 3.37461 12.4353C4.62441 11.6818 6.09347 11.7274 7.25556 12.4581C7.40904 12.5266 18.4599 18.3264 18.6353 18.4406C18.8107 18.5091 18.9642 18.6004 19.1396 18.6917C19.8851 19.0114 20.5209 19.5822 20.9595 20.3358C22.0119 22.231 21.4199 24.6513 19.6 25.7474C18.3502 26.5237 16.8592 26.4552 15.6972 25.7245Z" fill="#7693FF" fill-opacity="0.4"/>
<path d="M13.658 12.0376C13.69 12.5395 13.5377 13.0506 13.1897 13.454C12.4633 14.2959 11.1635 14.3523 10.29 13.5986C9.74752 13.1305 9.48885 12.4637 9.54433 11.8231C9.53456 11.7229 9.58809 3.63033 9.59508 3.52927C9.56301 3.02735 9.71532 2.51623 10.0634 2.11284C10.7898 1.27098 12.0896 1.21455 12.9631 1.96823C13.5055 2.4363 13.7642 3.10315 13.7087 3.74372C13.7201 3.86064 13.665 11.9365 13.658 12.0376Z" fill="#D6FF62"/>
<path d="M13.658 36.0376C13.69 36.5395 13.5377 37.0506 13.1897 37.454C12.4633 38.2959 11.1635 38.3523 10.29 37.5986C9.74752 37.1305 9.48885 36.4637 9.54433 35.8231C9.53456 35.7229 9.58809 27.6303 9.59508 27.5293C9.56301 27.0274 9.71532 26.5162 10.0634 26.1128C10.7898 25.271 12.0896 25.2145 12.9631 25.9682C13.5055 26.4363 13.7642 27.1032 13.7087 27.7437C13.7201 27.8606 13.665 35.9365 13.658 36.0376Z" fill="#D6FF62"/>
<path d="M6.52322 34.7663C5.73707 35.3055 4.75707 35.5534 3.76253 35.378C1.68698 35.012 0.333976 32.9504 0.713692 30.7969C0.949516 29.4595 1.78435 28.3913 2.88118 27.8601C3.03488 27.747 16.2636 19.9824 16.435 19.8958C17.2211 19.3566 18.2011 19.1087 19.1956 19.284C21.2712 19.65 22.6242 21.7117 22.2445 23.8651C22.0087 25.2026 21.1738 26.2708 20.077 26.8019C19.8977 26.9339 6.69454 34.6796 6.52322 34.7663Z" fill="#86A0FE"/>
<path d="M6.52351 18.2944C5.73722 18.8344 4.75713 19.0828 3.76259 18.9074C1.70866 18.5453 0.330423 16.5003 0.714613 14.3214C0.950731 12.9823 1.78582 11.9127 2.8828 11.3806C3.03654 11.2673 16.2634 3.51331 16.4348 3.42652C17.2211 2.8865 18.2012 2.63808 19.1957 2.81344C21.2713 3.17942 22.6239 5.24328 22.2437 7.39944C22.0076 8.73853 21.1725 9.80819 20.0755 10.3402C19.9001 10.4497 6.69086 18.2303 6.52351 18.2944Z" fill="#86A0FE"/>
</svg>
